<?xml version="1.0" standalone="no"?>
<!DOCTYPE svg PUBLIC "-//W3C//DTD SVG 20010904//EN"
 "http://www.w3.org/TR/2001/REC-SVG-20010904/DTD/svg10.dtd">
<svg version="1.0" xmlns="http://www.w3.org/2000/svg"
 width="389.000000pt" height="389.000000pt" viewBox="0 0 389.000000 389.000000"
 preserveAspectRatio="xMidYMid meet">
<metadata>
Created by potrace 1.14, written by Peter Selinger 2001-2017
</metadata>
<g transform="translate(0.000000,389.000000) scale(0.100000,-0.100000)"
fill="#000000" stroke="none">
<path d="M1870 3751 c-21 -21 -43 -30 -82 -35 -73 -10 -147 -32 -182 -55 -27
-18 -32 -18 -59 -5 -52 27 -118 -9 -138 -75 -11 -36 -14 -39 -58 -44 -39 -4
-52 -12 -82 -47 -33 -38 -37 -40 -50 -24 -17 20 -70 44 -99 44 -17 0 -20 -6
-20 -38 0 -21 9 -55 20 -77 11 -21 17 -41 15 -44 -3 -2 -24 6 -48 20 -36 20
-55 24 -132 24 -80 0 -95 -3 -137 -28 -88 -51 -119 -131 -80 -205 15 -29 19
-51 15 -80 -4 -29 0 -53 16 -84 11 -25 21 -58 21 -74 1 -54 60 -104 123 -104
21 0 48 -5 59 -11 30 -16 95 -13 124 5 24 17 87 107 98 143 6 17 12 20 34 14
22 -6 28 -14 33 -49 3 -23 8 -45 12 -48 3 -4 -2 -18 -13 -31 -26 -34 -34 -84
-20 -127 11 -35 10 -37 -26 -71 -34 -33 -36 -38 -31 -82 3 -33 12 -53 28 -66
19 -16 24 -29 24 -71 0 -60 20 -97 68 -126 59 -36 159 -22 215 30 12 11 23 16
25 12 3 -4 16 -49 30 -100 l26 -93 -45 -32 c-70 -49 -120 -66 -203 -66 -101
-1 -189 39 -232 107 -33 52 -36 67 -14 79 21 12 75 150 75 194 0 26 -8 47 -27
69 l-26 32 46 92 c26 51 47 97 47 103 0 21 -52 73 -73 73 -39 0 -88 -43 -117
-102 l-27 -57 -22 52 c-34 82 -110 120 -159 80 -42 -34 -37 -84 17 -167 14
-22 21 -41 16 -43 -49 -17 -60 -30 -63 -71 -2 -29 4 -56 17 -83 12 -22 21 -51
21 -65 0 -15 12 -38 30 -56 17 -16 35 -38 40 -49 6 -10 20 -19 30 -19 11 0 20
-6 20 -12 0 -30 61 -136 99 -174 78 -76 199 -124 316 -124 59 0 157 28 220 63
l45 26 0 -24 c0 -54 -168 -160 -292 -184 -35 -7 -73 -15 -86 -17 -13 -3 -22
-10 -19 -17 3 -8 34 -12 103 -11 80 0 116 6 187 28 48 16 90 32 93 37 3 5 12
9 20 9 19 0 20 -95 1 -107 -63 -39 -92 -194 -48 -254 25 -34 25 -27 1 -93
l-21 -54 -97 0 c-108 1 -176 -19 -267 -77 -46 -29 -165 -149 -165 -165 0 -4
-17 -7 -37 -6 -34 1 -40 6 -70 56 -70 118 -143 180 -211 180 -25 0 -92 -36
-92 -49 0 -4 -18 -13 -40 -20 -46 -14 -59 -33 -67 -101 -13 -113 90 -311 191
-365 25 -13 36 -27 36 -41 0 -14 16 -36 42 -59 108 -92 284 -82 344 21 24 41
26 51 20 107 -4 34 -8 93 -10 131 l-2 69 68 69 c66 67 118 99 186 113 26 5 32
3 32 -10 0 -18 -28 -77 -41 -85 -11 -8 -13 -56 -4 -106 6 -37 4 -44 -21 -67
-33 -31 -24 -48 14 -25 36 23 48 61 32 109 -10 29 -10 43 -2 51 8 8 13 4 18
-16 7 -28 34 -37 34 -11 0 9 -7 27 -17 41 -15 23 -15 28 0 60 10 19 17 41 17
49 0 8 9 15 20 15 14 0 22 -11 31 -39 12 -42 66 -104 108 -126 38 -19 128 -43
190 -50 30 -3 55 -7 56 -8 1 -1 14 -36 28 -77 50 -139 146 -249 266 -305 47
-23 118 -44 207 -61 13 -2 23 -13 26 -28 5 -25 5 -25 -73 -25 -59 0 -87 -5
-118 -20 -51 -27 -91 -84 -91 -132 l0 -36 -257 -7 c-390 -10 -700 -39 -727
-66 -54 -54 330 -90 944 -90 468 0 844 24 934 59 60 24 -15 52 -181 67 l-73 7
0 57 c0 48 4 60 22 72 22 15 22 17 10 109 -16 123 -27 161 -57 192 -30 30 -88
46 -133 36 -20 -4 -49 -1 -74 8 -38 13 -46 13 -75 -1 -19 -9 -39 -28 -45 -42
-11 -24 -16 -26 -53 -21 -60 9 -148 45 -187 77 l-33 28 38 7 c25 5 47 3 63 -5
31 -17 38 -10 18 18 -10 14 -26 22 -45 22 -22 0 -29 4 -29 20 0 13 -13 28 -34
41 -19 11 -37 26 -40 34 -8 22 -26 18 -26 -5 0 -12 16 -30 40 -46 45 -30 47
-47 8 -52 -29 -3 -54 25 -88 100 -26 57 -25 76 3 83 16 5 42 36 82 101 32 52
69 101 82 109 15 10 23 25 23 43 0 32 91 221 105 218 6 -1 21 -25 35 -53 14
-28 31 -58 38 -66 7 -9 10 -25 7 -40 -4 -16 1 -39 14 -65 12 -23 21 -57 21
-76 0 -23 9 -45 26 -65 43 -52 62 -35 22 19 -12 16 -18 33 -15 37 13 12 65
-48 74 -84 9 -39 28 -46 28 -10 0 12 6 26 13 30 17 11 15 27 -4 27 -9 0 -34
16 -55 35 -22 19 -43 35 -49 35 -10 0 -50 85 -50 107 0 26 81 6 112 -28 32
-34 38 -36 38 -10 0 28 -52 67 -98 75 -40 6 -92 52 -92 80 0 7 -13 31 -28 52
l-29 39 18 42 c19 45 56 75 91 75 73 -2 116 -10 141 -26 17 -11 44 -19 65 -18
20 1 47 -6 60 -14 36 -24 50 -2 17 25 -18 13 -40 20 -64 19 -20 0 -47 5 -60
12 -23 12 -23 13 -5 23 10 6 32 13 48 16 16 4 31 12 34 19 7 21 -46 14 -101
-14 -46 -24 -57 -26 -91 -16 -25 6 -48 7 -64 1 -14 -5 -27 -8 -29 -5 -2 2 9
48 25 103 39 126 70 265 78 340 l7 60 76 0 c133 2 145 2 179 8 41 7 43 34 5
83 l-26 35 24 -8 c51 -16 184 -17 222 -2 58 25 51 6 -20 -52 -73 -60 -93 -97
-93 -170 0 -38 6 -56 24 -78 l24 -28 -20 -39 c-58 -113 17 -234 122 -197 26 8
36 8 53 -4 27 -19 74 -19 107 0 14 8 42 14 62 15 74 0 148 99 164 217 5 39 1
69 -16 125 -20 68 -27 79 -101 151 -45 43 -89 77 -100 77 -29 0 -68 83 -51
110 18 29 25 92 13 122 -9 24 -7 34 13 63 48 70 54 162 16 251 -25 58 -120
140 -181 155 l-48 12 19 24 c10 13 24 40 30 59 11 31 10 38 -8 57 -31 33 -52
91 -52 142 0 25 -5 54 -12 64 -15 25 2 47 44 56 17 4 46 24 65 44 53 58 45 71
-51 80 -66 7 -65 4 -50 79 17 89 -75 142 -111 64 -6 -15 -15 -20 -25 -16 -8 4
-38 9 -67 12 -49 4 -53 7 -63 38 -24 70 -122 111 -210 87 -19 -6 -61 -7 -92
-3 -101 11 -227 -28 -282 -88 -17 -20 -20 -20 -42 -5 -16 10 -24 25 -24 43 0
67 -98 93 -150 41z"/>
<path d="M742 1923 c-13 -9 -51 -19 -85 -22 -70 -7 -68 -2 -53 -113 7 -57 7
-58 -18 -58 -24 0 -56 -23 -56 -39 0 -31 77 -44 107 -20 15 13 14 34 -4 137
-5 30 -4 32 25 32 16 0 49 7 72 15 56 20 53 20 74 -20 19 -35 19 -35 -2 -58
-12 -13 -22 -33 -22 -45 0 -18 6 -22 33 -22 36 0 67 25 67 53 0 16 -62 128
-88 160 -18 20 -21 20 -50 0z"/>
<path d="M1206 1671 c-3 -4 -29 -11 -57 -13 -80 -8 -86 -26 -38 -100 l39 -60
-25 -20 c-30 -24 -33 -64 -5 -73 24 -8 55 8 76 40 15 23 14 26 -25 84 -23 33
-41 64 -41 69 0 12 25 22 54 22 27 0 46 18 46 42 0 19 -15 24 -24 9z"/>
<path d="M482 1153 c-12 -29 -7 -136 7 -162 19 -34 34 -13 20 28 -7 20 -9 57
-5 92 6 58 -6 80 -22 42z"/>
<path d="M791 150 c-50 -8 -81 -23 -69 -35 30 -30 346 -32 375 -2 15 15 14 17
-12 27 -37 14 -227 21 -294 10z"/>
</g>
</svg>
